<svg width="507" height="504" viewBox="0 0 507 504" fill="none" xmlns="http://www.w3.org/2000/svg">
<path d="M2.89617 90.4949L96.6184 2.62295C97.7305 1.58027 99.1978 1 100.722 1H485.262C486.853 1 488.379 1.63221 489.504 2.75754L504.243 17.4972C505.368 18.6224 506 20.1485 506 21.7397V412.285C506 413.876 505.368 415.402 504.243 416.527L419.534 501.242C418.409 502.368 416.883 503 415.292 503H21.4255C20.0217 503 18.6625 502.508 17.5842 501.609L3.1587 489.587C1.79086 488.447 1 486.758 1 484.978V94.872C1 93.2136 1.68638 91.6292 2.89617 90.4949Z" fill="black" stroke="black"/>
<path d="M126 376V52C126 50.8954 126.895 50 128 50H455C456.105 50 457 50.8954 457 52V376C457 377.105 456.105 378 455 378H128C126.895 378 126 377.105 126 376Z" fill="white" stroke="black"/>
<path d="M196.466 291C195.542 291 194.733 290.589 194.04 289.766C193.347 288.779 193 287.545 193 286.065V259.413C193 256.781 193.52 254.806 194.56 253.49C195.6 252.174 196.697 251.023 197.852 250.035L235.459 214.5L197.852 179.211C196.697 178.224 195.6 176.99 194.56 175.51C193.52 174.029 193 172.055 193 169.587V142.935C193 141.455 193.347 140.303 194.04 139.481C194.733 138.494 195.542 138 196.466 138C196.928 138 197.39 138.165 197.852 138.494C198.43 138.823 198.95 139.152 199.412 139.481L261.974 199.94C263.707 201.585 264.978 203.148 265.787 204.629C266.596 206.11 267 208.166 267 210.798V218.202C267 220.669 266.596 222.726 265.787 224.371C264.978 225.852 263.707 227.415 261.974 229.06L199.412 289.519C198.95 289.848 198.43 290.177 197.852 290.506C197.39 290.835 196.928 291 196.466 291Z" fill="black"/>
<path d="M283.309 291C282.045 291 281.011 290.333 280.207 289C279.402 287.833 279 286.417 279 284.75V261.25C279 259.417 279.402 257.917 280.207 256.75C281.011 255.583 282.045 255 283.309 255H385.691C386.84 255 387.817 255.583 388.621 256.75C389.54 257.917 390 259.417 390 261.25V284.75C390 286.417 389.54 287.833 388.621 289C387.817 290.333 386.84 291 385.691 291H283.309Z" fill="black"/>
</svg>
